<mxfile host="app.diagrams.net" agent="Mozilla/5.0 (Macintosh; Intel Mac OS X 10_15_7) AppleWebKit/537.36 (KHTML, like Gecko) Chrome/133.0.0.0 Safari/537.36" version="26.0.13">
  <diagram name="第 1 页" id="bvHiWAN2nZYwP-S__BpO">
    <mxGraphModel dx="454" dy="300" grid="1" gridSize="10" guides="1" tooltips="1" connect="1" arrows="1" fold="1" page="1" pageScale="1" pageWidth="827" pageHeight="1169" math="0" shadow="0">
      <root>
        <mxCell id="0" />
        <mxCell id="1" parent="0" />
        <mxCell id="Jep-8i6kxvov_q0YC4sI-16" style="edgeStyle=orthogonalEdgeStyle;rounded=0;orthogonalLoop=1;jettySize=auto;html=1;exitX=0.5;exitY=1;exitDx=0;exitDy=0;" edge="1" parent="1" source="Jep-8i6kxvov_q0YC4sI-1" target="Jep-8i6kxvov_q0YC4sI-3">
          <mxGeometry relative="1" as="geometry" />
        </mxCell>
        <mxCell id="Jep-8i6kxvov_q0YC4sI-1" value="开始" style="rounded=1;whiteSpace=wrap;html=1;" vertex="1" parent="1">
          <mxGeometry x="360" y="90" width="70" height="30" as="geometry" />
        </mxCell>
        <mxCell id="Jep-8i6kxvov_q0YC4sI-17" style="edgeStyle=orthogonalEdgeStyle;rounded=0;orthogonalLoop=1;jettySize=auto;html=1;exitX=0.5;exitY=1;exitDx=0;exitDy=0;entryX=0.5;entryY=0;entryDx=0;entryDy=0;" edge="1" parent="1" source="Jep-8i6kxvov_q0YC4sI-3" target="Jep-8i6kxvov_q0YC4sI-5">
          <mxGeometry relative="1" as="geometry" />
        </mxCell>
        <mxCell id="Jep-8i6kxvov_q0YC4sI-3" value="获取密码Password" style="rounded=0;whiteSpace=wrap;html=1;" vertex="1" parent="1">
          <mxGeometry x="335" y="150" width="120" height="30" as="geometry" />
        </mxCell>
        <mxCell id="Jep-8i6kxvov_q0YC4sI-18" style="edgeStyle=orthogonalEdgeStyle;rounded=0;orthogonalLoop=1;jettySize=auto;html=1;entryX=0.5;entryY=0;entryDx=0;entryDy=0;" edge="1" parent="1" source="Jep-8i6kxvov_q0YC4sI-5" target="Jep-8i6kxvov_q0YC4sI-6">
          <mxGeometry relative="1" as="geometry" />
        </mxCell>
        <mxCell id="Jep-8i6kxvov_q0YC4sI-5" value="生成随机唯一盐值Salt" style="rounded=0;whiteSpace=wrap;html=1;" vertex="1" parent="1">
          <mxGeometry x="328" y="210" width="134" height="30" as="geometry" />
        </mxCell>
        <mxCell id="Jep-8i6kxvov_q0YC4sI-15" style="edgeStyle=orthogonalEdgeStyle;rounded=0;orthogonalLoop=1;jettySize=auto;html=1;entryX=0.5;entryY=0;entryDx=0;entryDy=0;" edge="1" parent="1" source="Jep-8i6kxvov_q0YC4sI-6" target="Jep-8i6kxvov_q0YC4sI-7">
          <mxGeometry relative="1" as="geometry" />
        </mxCell>
        <mxCell id="Jep-8i6kxvov_q0YC4sI-6" value="结合Salt、Password&lt;br&gt;生成Password&#39;" style="rounded=0;whiteSpace=wrap;html=1;" vertex="1" parent="1">
          <mxGeometry x="325" y="276" width="140" height="30" as="geometry" />
        </mxCell>
        <mxCell id="Jep-8i6kxvov_q0YC4sI-12" style="edgeStyle=orthogonalEdgeStyle;rounded=0;orthogonalLoop=1;jettySize=auto;html=1;entryX=0.5;entryY=0;entryDx=0;entryDy=0;" edge="1" parent="1" source="Jep-8i6kxvov_q0YC4sI-7" target="Jep-8i6kxvov_q0YC4sI-9">
          <mxGeometry relative="1" as="geometry" />
        </mxCell>
        <mxCell id="Jep-8i6kxvov_q0YC4sI-7" value="&lt;div style=&quot;&quot;&gt;使用Eksblowfish算法进行加密&lt;/div&gt;" style="rounded=0;whiteSpace=wrap;html=1;align=center;" vertex="1" parent="1">
          <mxGeometry x="305" y="340" width="180" height="30" as="geometry" />
        </mxCell>
        <mxCell id="Jep-8i6kxvov_q0YC4sI-13" style="edgeStyle=orthogonalEdgeStyle;rounded=0;orthogonalLoop=1;jettySize=auto;html=1;" edge="1" parent="1" source="Jep-8i6kxvov_q0YC4sI-9" target="Jep-8i6kxvov_q0YC4sI-10">
          <mxGeometry relative="1" as="geometry" />
        </mxCell>
        <mxCell id="Jep-8i6kxvov_q0YC4sI-20" value="是" style="edgeLabel;html=1;align=center;verticalAlign=middle;resizable=0;points=[];" vertex="1" connectable="0" parent="Jep-8i6kxvov_q0YC4sI-13">
          <mxGeometry x="-0.6844" relative="1" as="geometry">
            <mxPoint y="2" as="offset" />
          </mxGeometry>
        </mxCell>
        <mxCell id="Jep-8i6kxvov_q0YC4sI-14" style="edgeStyle=orthogonalEdgeStyle;rounded=0;orthogonalLoop=1;jettySize=auto;html=1;entryX=0.5;entryY=0;entryDx=0;entryDy=0;exitX=1;exitY=0.5;exitDx=0;exitDy=0;" edge="1" parent="1" source="Jep-8i6kxvov_q0YC4sI-9">
          <mxGeometry relative="1" as="geometry">
            <mxPoint x="395" y="340" as="targetPoint" />
            <mxPoint x="424.73333333333335" y="430.03703703703695" as="sourcePoint" />
            <Array as="points">
              <mxPoint x="505" y="432" />
              <mxPoint x="505" y="320" />
              <mxPoint x="395" y="320" />
            </Array>
          </mxGeometry>
        </mxCell>
        <mxCell id="Jep-8i6kxvov_q0YC4sI-21" value="否" style="edgeLabel;html=1;align=center;verticalAlign=middle;resizable=0;points=[];" vertex="1" connectable="0" parent="Jep-8i6kxvov_q0YC4sI-14">
          <mxGeometry x="-0.8264" y="-1" relative="1" as="geometry">
            <mxPoint as="offset" />
          </mxGeometry>
        </mxCell>
        <mxCell id="Jep-8i6kxvov_q0YC4sI-9" value="达到加密迭&lt;div&gt;代次数&lt;/div&gt;" style="rhombus;whiteSpace=wrap;html=1;fontSize=10;" vertex="1" parent="1">
          <mxGeometry x="363.5" y="397" width="63" height="70" as="geometry" />
        </mxCell>
        <mxCell id="Jep-8i6kxvov_q0YC4sI-19" style="edgeStyle=orthogonalEdgeStyle;rounded=0;orthogonalLoop=1;jettySize=auto;html=1;" edge="1" parent="1" source="Jep-8i6kxvov_q0YC4sI-10" target="Jep-8i6kxvov_q0YC4sI-11">
          <mxGeometry relative="1" as="geometry" />
        </mxCell>
        <mxCell id="Jep-8i6kxvov_q0YC4sI-10" value="&lt;div style=&quot;&quot;&gt;获取最终加密结果&lt;/div&gt;" style="rounded=0;whiteSpace=wrap;html=1;align=center;" vertex="1" parent="1">
          <mxGeometry x="305" y="500" width="180" height="30" as="geometry" />
        </mxCell>
        <mxCell id="Jep-8i6kxvov_q0YC4sI-11" value="结束" style="rounded=1;whiteSpace=wrap;html=1;" vertex="1" parent="1">
          <mxGeometry x="360" y="560" width="70" height="30" as="geometry" />
        </mxCell>
      </root>
    </mxGraphModel>
  </diagram>
</mxfile>
